# xmcd
#
# Track frame offsets:
#   150
#   15156
#   28623
#   41955
#   58391
#   71318
#   82167
#   95337
#   108912
#   126347
#   144703
#   158902
#   171478
#   187986
#   204552
#   218313
#
# Disc length: 3112 seconds
#
# Revision: 0
# Processed by: cddbd v1.5.1PL0 Copyright (c) Steve Scherf et al.
# Submitted via: uFREEDB ActiveX Control 1.5
#
DISCID=e00c2610
DTITLE=Vários - Canto bebo e Choro
DYEAR=1900
DGENRE=Country
TTITLE0=Boate Azul - Joaquim e Manoel
TTITLE1=Dama e Vermelho - Duduca e Dalvan
TTITLE2=60 Dias apaixonadas  - Chitaozinho e Xororo
TTITLE3=Sublime Renuncia - Pery e Poty
TTITLE4=Noite Maravilhosa - Cesar e Paulinho
TTITLE5=So mais uma vez - Gilberto e Gilmar
TTITLE6=Pedaço de poema - Bia e Dino Franco
TTITLE7=Canto bebo e choro - Zaza e Zeze
TTITLE8=Eu disse não - Duduca e dalvan
TTITLE9=Minha Serenata - Joao Mineiro e Marciano
TTITLE10=Vestido de Seda - Teodoro e Sampaio
TTITLE11=Pedaço de minha vida - Matogrosso e Matias
TTITLE12=Musica da saudade - Gilberto e Gilmar
TTITLE13=E por você que canto - Leandro e Leonardo
TTITLE14=Camisa Branca - Duo Glacial
TTITLE15=Toalha Molhada - Crioulo e Juvenil
EXTD=
EXTT0=
EXTT1=
EXTT2=
EXTT3=
EXTT4=
EXTT5=
EXTT6=
EXTT7=
EXTT8=
EXTT9=
EXTT10=
EXTT11=
EXTT12=
EXTT13=
EXTT14=
EXTT15=
PLAYORDER=
